<mxfile host="Electron" modified="2020-07-26T15:23:30.799Z" agent="5.0 (Windows NT 10.0; Win64; x64) AppleWebKit/537.36 (KHTML, like Gecko) draw.io/13.4.5 Chrome/83.0.4103.122 Electron/9.1.0 Safari/537.36" etag="tDEJOaWM9blYUHGXsatU" compressed="false" version="13.4.5" type="device">
  <diagram id="dJ2JPDal48oqf8MwkSXy" name="Page-1">
    <mxGraphModel dx="711" dy="411" grid="1" gridSize="10" guides="1" tooltips="1" connect="1" arrows="1" fold="1" page="1" pageScale="1" pageWidth="1169" pageHeight="827" math="0" shadow="0">
      <root>
        <mxCell id="0" />
        <mxCell id="1" parent="0" />
        <mxCell id="iBrnb8glgnJoaJtSgUPf-64" style="edgeStyle=orthogonalEdgeStyle;rounded=0;orthogonalLoop=1;jettySize=auto;html=1;exitX=1;exitY=0.5;exitDx=0;exitDy=0;entryX=0;entryY=0.16666666666666666;entryDx=0;entryDy=0;endArrow=none;endFill=0;" parent="1" source="iBrnb8glgnJoaJtSgUPf-1" target="iBrnb8glgnJoaJtSgUPf-77" edge="1">
          <mxGeometry relative="1" as="geometry">
            <mxPoint x="420" y="253.33333333333303" as="targetPoint" />
          </mxGeometry>
        </mxCell>
        <mxCell id="iBrnb8glgnJoaJtSgUPf-1" value="" style="shape=image;verticalLabelPosition=bottom;labelBackgroundColor=#ffffff;verticalAlign=top;aspect=fixed;imageAspect=0;image=data:image/svg+xml,PHN2ZyB4bWxucz0iaHR0cDovL3d3dy53My5vcmcvMjAwMC9zdmciIHhtbG5zOmV2PSJodHRwOi8vd3d3LnczLm9yZy8yMDAxL3htbC1ldmVudHMiIHhtbG5zOnhsaW5rPSJodHRwOi8vd3d3LnczLm9yZy8xOTk5L3hsaW5rIiBiYXNlUHJvZmlsZT0iZnVsbCIgaGVpZ2h0PSI0MCIgdmVyc2lvbj0iMS4xIiB3aWR0aD0iNDAiIHZpZXdCb3g9IjAgMCA0MCA0MCI+PGRlZnMvPjxyZWN0IGZpbGw9IiNmZmZmZmYiIGhlaWdodD0iNDAiIHN0cm9rZT0iIzAwMDAwMCIgc3Ryb2tlLXdpZHRoPSIwLjUiIHdpZHRoPSI0MCIgeD0iMCIgeT0iMCIvPjxwb2x5Z29uIGZpbGw9IiNjNDcxNzkiIHBvaW50cz0iNDAsMTMuMzMzMzMzMzMzMzMzMzM2IDMzLjMzMzMzMzMzMzMzMzMzNiwyMC4wIDQwLDI2LjY2NjY2NjY2NjY2NjY2NCA0MCwxMy4zMzMzMzMzMzMzMzMzMzYiIHN0cm9rZT0iYmxhY2siIHN0cm9rZS13aWR0aD0iMC44Ii8+PHRleHQgc3R5bGU9ImZvbnQtc2l6ZTo4cHg7IGZvbnQtZmFtaWx5OkNvdXJpZXI7Zm9udC13ZWlnaHQ6Ym9sZDsiIHRleHQtYW5jaG9yPSJtaWRkbGUiIHg9IjIwIiB5PSIyMiI+UnVuPC90ZXh0PjxyZWN0IGZpbGw9Im5vbmUiIGhlaWdodD0iNDAiIHN0cm9rZT0iIzAwMDAwMCIgc3Ryb2tlLXdpZHRoPSIxLjYiIHdpZHRoPSI0MCIgeD0iMCIgeT0iMCIvPjwvc3ZnPg==;points=[[1, 0.5]];verticalLabelPosition=top;labelBackgroundColor=none;verticalAlign=bottom;aspect=fixed;imageAspect=0;fontFamily=Courier;fontSize=8;labelPosition=center;align=center;spacing=-1;fontStyle=1;syncNodeName=run;" parent="1" vertex="1">
          <mxGeometry x="340" y="200" width="40" height="40" as="geometry" />
        </mxCell>
        <mxCell id="iBrnb8glgnJoaJtSgUPf-17" style="edgeStyle=orthogonalEdgeStyle;rounded=0;orthogonalLoop=1;jettySize=auto;html=1;exitX=1;exitY=0.75;exitDx=0;exitDy=0;entryX=0;entryY=0.5;entryDx=0;entryDy=0;endArrow=none;endFill=0;" parent="1" source="iBrnb8glgnJoaJtSgUPf-79" target="iBrnb8glgnJoaJtSgUPf-15" edge="1">
          <mxGeometry relative="1" as="geometry">
            <mxPoint x="620" y="460" as="sourcePoint" />
          </mxGeometry>
        </mxCell>
        <mxCell id="iBrnb8glgnJoaJtSgUPf-39" style="edgeStyle=orthogonalEdgeStyle;rounded=0;orthogonalLoop=1;jettySize=auto;html=1;exitX=1;exitY=0.75;exitDx=0;exitDy=0;entryX=0;entryY=0.16666666666666666;entryDx=0;entryDy=0;endArrow=none;endFill=0;" parent="1" source="iBrnb8glgnJoaJtSgUPf-79" target="iBrnb8glgnJoaJtSgUPf-80" edge="1">
          <mxGeometry relative="1" as="geometry">
            <mxPoint x="620" y="460" as="sourcePoint" />
            <mxPoint x="660" y="493.33333333333326" as="targetPoint" />
          </mxGeometry>
        </mxCell>
        <mxCell id="iBrnb8glgnJoaJtSgUPf-60" style="edgeStyle=orthogonalEdgeStyle;rounded=0;orthogonalLoop=1;jettySize=auto;html=1;exitX=1;exitY=0.25;exitDx=0;exitDy=0;entryX=0;entryY=0.75;entryDx=0;entryDy=0;endArrow=none;endFill=0;" parent="1" source="iBrnb8glgnJoaJtSgUPf-79" target="iBrnb8glgnJoaJtSgUPf-78" edge="1">
          <mxGeometry relative="1" as="geometry">
            <mxPoint x="620" y="419.9999999999999" as="sourcePoint" />
            <mxPoint x="440" y="380" as="targetPoint" />
            <Array as="points">
              <mxPoint x="630" y="420" />
              <mxPoint x="630" y="490" />
              <mxPoint x="420" y="490" />
              <mxPoint x="420" y="380" />
            </Array>
          </mxGeometry>
        </mxCell>
        <mxCell id="iBrnb8glgnJoaJtSgUPf-20" style="edgeStyle=orthogonalEdgeStyle;rounded=0;orthogonalLoop=1;jettySize=auto;html=1;exitX=1;exitY=0.75;exitDx=0;exitDy=0;entryX=0;entryY=0.5;entryDx=0;entryDy=0;endArrow=none;endFill=0;" parent="1" source="iBrnb8glgnJoaJtSgUPf-80" target="iBrnb8glgnJoaJtSgUPf-16" edge="1">
          <mxGeometry relative="1" as="geometry">
            <mxPoint x="700" y="540" as="sourcePoint" />
          </mxGeometry>
        </mxCell>
        <mxCell id="iBrnb8glgnJoaJtSgUPf-31" style="edgeStyle=orthogonalEdgeStyle;rounded=0;orthogonalLoop=1;jettySize=auto;html=1;exitX=1;exitY=0.25;exitDx=0;exitDy=0;entryX=0;entryY=0.75;entryDx=0;entryDy=0;endArrow=none;endFill=0;" parent="1" source="iBrnb8glgnJoaJtSgUPf-80" target="iBrnb8glgnJoaJtSgUPf-79" edge="1">
          <mxGeometry relative="1" as="geometry">
            <mxPoint x="520" y="460" as="targetPoint" />
            <mxPoint x="700" y="500" as="sourcePoint" />
            <Array as="points">
              <mxPoint x="710" y="500" />
              <mxPoint x="710" y="570" />
              <mxPoint x="500" y="570" />
              <mxPoint x="500" y="460" />
            </Array>
          </mxGeometry>
        </mxCell>
        <mxCell id="iBrnb8glgnJoaJtSgUPf-15" value="c" style="shape=image;verticalLabelPosition=bottom;labelBackgroundColor=#ffffff;verticalAlign=top;aspect=fixed;imageAspect=0;image=data:image/svg+xml,PHN2ZyB4bWxucz0iaHR0cDovL3d3dy53My5vcmcvMjAwMC9zdmciIHhtbG5zOmV2PSJodHRwOi8vd3d3LnczLm9yZy8yMDAxL3htbC1ldmVudHMiIHhtbG5zOnhsaW5rPSJodHRwOi8vd3d3LnczLm9yZy8xOTk5L3hsaW5rIiBiYXNlUHJvZmlsZT0iZnVsbCIgaGVpZ2h0PSI0MCIgdmVyc2lvbj0iMS4xIiB3aWR0aD0iNDAiIHZpZXdCb3g9IjAgMCA0MCA0MCI+PGRlZnMvPjxyZWN0IGZpbGw9IiNmZmZmZmYiIGhlaWdodD0iNDAiIHN0cm9rZT0iIzAwMDAwMCIgc3Ryb2tlLXdpZHRoPSIwLjUiIHdpZHRoPSI0MCIgeD0iMCIgeT0iMCIvPjxwb2x5Z29uIGZpbGw9IiNiZmJmYmYiIHBvaW50cz0iMCwxMy4zMzMzMzMzMzMzMzMzMzYgNi42NjY2NjY2NjY2NjY2NjYsMjAuMCAwLDI2LjY2NjY2NjY2NjY2NjY2NCAwLDEzLjMzMzMzMzMzMzMzMzMzNiIgc3Ryb2tlPSJibGFjayIgc3Ryb2tlLXdpZHRoPSIwLjgiLz48cG9seWdvbiBmaWxsPSIjYmZiZmJmIiBwb2ludHM9IjQwLDEzLjMzMzMzMzMzMzMzMzMzNiAzMy4zMzMzMzMzMzMzMzMzMzYsMjAuMCA0MCwyNi42NjY2NjY2NjY2NjY2NjQgNDAsMTMuMzMzMzMzMzMzMzMzMzM2IiBzdHJva2U9ImJsYWNrIiBzdHJva2Utd2lkdGg9IjAuOCIvPjx0ZXh0IHN0eWxlPSJmb250LXNpemU6OHB4OyBmb250LWZhbWlseTpDb3VyaWVyO2ZvbnQtd2VpZ2h0OmJvbGQ7IiB0ZXh0LWFuY2hvcj0ibWlkZGxlIiB4PSIyMCIgeT0iMjIiPlZhcjwvdGV4dD48cmVjdCBmaWxsPSJub25lIiBoZWlnaHQ9IjQwIiBzdHJva2U9IiMwMDAwMDAiIHN0cm9rZS13aWR0aD0iMS42IiB3aWR0aD0iNDAiIHg9IjAiIHk9IjAiLz48L3N2Zz4=;points=[[0, 0.5], [1, 0.5]];verticalLabelPosition=top;labelBackgroundColor=none;verticalAlign=bottom;aspect=fixed;imageAspect=0;fontFamily=Courier;fontSize=8;labelPosition=center;align=center;spacing=-1;fontStyle=1;syncNodeName=var;" parent="1" vertex="1">
          <mxGeometry x="740" y="440" width="40" height="40" as="geometry" />
        </mxCell>
        <mxCell id="iBrnb8glgnJoaJtSgUPf-73" style="edgeStyle=orthogonalEdgeStyle;rounded=0;orthogonalLoop=1;jettySize=auto;html=1;exitX=1;exitY=0.5;exitDx=0;exitDy=0;entryX=0;entryY=0.5;entryDx=0;entryDy=0;endArrow=none;endFill=0;" parent="1" source="iBrnb8glgnJoaJtSgUPf-16" target="iBrnb8glgnJoaJtSgUPf-72" edge="1">
          <mxGeometry relative="1" as="geometry" />
        </mxCell>
        <mxCell id="iBrnb8glgnJoaJtSgUPf-16" value="d" style="shape=image;verticalLabelPosition=bottom;labelBackgroundColor=#ffffff;verticalAlign=top;aspect=fixed;imageAspect=0;image=data:image/svg+xml,PHN2ZyB4bWxucz0iaHR0cDovL3d3dy53My5vcmcvMjAwMC9zdmciIHhtbG5zOmV2PSJodHRwOi8vd3d3LnczLm9yZy8yMDAxL3htbC1ldmVudHMiIHhtbG5zOnhsaW5rPSJodHRwOi8vd3d3LnczLm9yZy8xOTk5L3hsaW5rIiBiYXNlUHJvZmlsZT0iZnVsbCIgaGVpZ2h0PSI0MCIgdmVyc2lvbj0iMS4xIiB3aWR0aD0iNDAiIHZpZXdCb3g9IjAgMCA0MCA0MCI+PGRlZnMvPjxyZWN0IGZpbGw9IiNmZmZmZmYiIGhlaWdodD0iNDAiIHN0cm9rZT0iIzAwMDAwMCIgc3Ryb2tlLXdpZHRoPSIwLjUiIHdpZHRoPSI0MCIgeD0iMCIgeT0iMCIvPjxwb2x5Z29uIGZpbGw9IiNiZmJmYmYiIHBvaW50cz0iMCwxMy4zMzMzMzMzMzMzMzMzMzYgNi42NjY2NjY2NjY2NjY2NjYsMjAuMCAwLDI2LjY2NjY2NjY2NjY2NjY2NCAwLDEzLjMzMzMzMzMzMzMzMzMzNiIgc3Ryb2tlPSJibGFjayIgc3Ryb2tlLXdpZHRoPSIwLjgiLz48cG9seWdvbiBmaWxsPSIjYmZiZmJmIiBwb2ludHM9IjQwLDEzLjMzMzMzMzMzMzMzMzMzNiAzMy4zMzMzMzMzMzMzMzMzMzYsMjAuMCA0MCwyNi42NjY2NjY2NjY2NjY2NjQgNDAsMTMuMzMzMzMzMzMzMzMzMzM2IiBzdHJva2U9ImJsYWNrIiBzdHJva2Utd2lkdGg9IjAuOCIvPjx0ZXh0IHN0eWxlPSJmb250LXNpemU6OHB4OyBmb250LWZhbWlseTpDb3VyaWVyO2ZvbnQtd2VpZ2h0OmJvbGQ7IiB0ZXh0LWFuY2hvcj0ibWlkZGxlIiB4PSIyMCIgeT0iMjIiPlZhcjwvdGV4dD48cmVjdCBmaWxsPSJub25lIiBoZWlnaHQ9IjQwIiBzdHJva2U9IiMwMDAwMDAiIHN0cm9rZS13aWR0aD0iMS42IiB3aWR0aD0iNDAiIHg9IjAiIHk9IjAiLz48L3N2Zz4=;points=[[0, 0.5], [1, 0.5]];verticalLabelPosition=top;labelBackgroundColor=none;verticalAlign=bottom;aspect=fixed;imageAspect=0;fontFamily=Courier;fontSize=8;labelPosition=center;align=center;spacing=-1;fontStyle=1;syncNodeName=var;" parent="1" vertex="1">
          <mxGeometry x="740" y="520" width="40" height="40" as="geometry" />
        </mxCell>
        <mxCell id="iBrnb8glgnJoaJtSgUPf-65" style="edgeStyle=orthogonalEdgeStyle;rounded=0;orthogonalLoop=1;jettySize=auto;html=1;exitX=1;exitY=0.5;exitDx=0;exitDy=0;entryX=0;entryY=0.3333333333333333;entryDx=0;entryDy=0;endArrow=none;endFill=0;" parent="1" source="iBrnb8glgnJoaJtSgUPf-21" target="iBrnb8glgnJoaJtSgUPf-77" edge="1">
          <mxGeometry relative="1" as="geometry">
            <mxPoint x="420" y="266.6666666666665" as="targetPoint" />
            <Array as="points">
              <mxPoint x="340" y="280" />
              <mxPoint x="340" y="267" />
            </Array>
          </mxGeometry>
        </mxCell>
        <mxCell id="iBrnb8glgnJoaJtSgUPf-21" value="2" style="shape=image;verticalLabelPosition=bottom;labelBackgroundColor=#ffffff;verticalAlign=top;aspect=fixed;imageAspect=0;image=data:image/svg+xml,PHN2ZyB4bWxucz0iaHR0cDovL3d3dy53My5vcmcvMjAwMC9zdmciIHhtbG5zOmV2PSJodHRwOi8vd3d3LnczLm9yZy8yMDAxL3htbC1ldmVudHMiIHhtbG5zOnhsaW5rPSJodHRwOi8vd3d3LnczLm9yZy8xOTk5L3hsaW5rIiBiYXNlUHJvZmlsZT0iZnVsbCIgaGVpZ2h0PSI0MCIgdmVyc2lvbj0iMS4xIiB3aWR0aD0iNDAiIHZpZXdCb3g9IjAgMCA0MCA0MCI+PGRlZnMvPjxyZWN0IGZpbGw9IiNmZmZmZmYiIGhlaWdodD0iNDAiIHN0cm9rZT0iIzAwMDAwMCIgc3Ryb2tlLXdpZHRoPSIwLjUiIHdpZHRoPSI0MCIgeD0iMCIgeT0iMCIvPjxwb2x5Z29uIGZpbGw9IiNiZmJmYmYiIHBvaW50cz0iNDAsMTMuMzMzMzMzMzMzMzMzMzM2IDMzLjMzMzMzMzMzMzMzMzMzNiwyMC4wIDQwLDI2LjY2NjY2NjY2NjY2NjY2NCA0MCwxMy4zMzMzMzMzMzMzMzMzMzYiIHN0cm9rZT0iYmxhY2siIHN0cm9rZS13aWR0aD0iMC44Ii8+PHRleHQgc3R5bGU9ImZvbnQtc2l6ZTo4cHg7IGZvbnQtZmFtaWx5OkNvdXJpZXI7Zm9udC13ZWlnaHQ6Ym9sZDsiIHRleHQtYW5jaG9yPSJtaWRkbGUiIHg9IjIwIiB5PSIyMiI+Q29uc3Q8L3RleHQ+PHJlY3QgZmlsbD0ibm9uZSIgaGVpZ2h0PSI0MCIgc3Ryb2tlPSIjMDAwMDAwIiBzdHJva2Utd2lkdGg9IjEuNiIgd2lkdGg9IjQwIiB4PSIwIiB5PSIwIi8+PC9zdmc+;points=[[1, 0.5]];verticalLabelPosition=top;labelBackgroundColor=none;verticalAlign=bottom;aspect=fixed;imageAspect=0;fontFamily=Courier;fontSize=8;labelPosition=center;align=center;spacing=-1;fontStyle=1;syncNodeName=const;" parent="1" vertex="1">
          <mxGeometry x="280" y="260" width="40" height="40" as="geometry" />
        </mxCell>
        <mxCell id="iBrnb8glgnJoaJtSgUPf-48" style="edgeStyle=orthogonalEdgeStyle;rounded=0;orthogonalLoop=1;jettySize=auto;html=1;exitX=1;exitY=0.75;exitDx=0;exitDy=0;entryX=0;entryY=0.5;entryDx=0;entryDy=0;endArrow=none;endFill=0;" parent="1" source="iBrnb8glgnJoaJtSgUPf-77" target="iBrnb8glgnJoaJtSgUPf-54" edge="1">
          <mxGeometry relative="1" as="geometry">
            <mxPoint x="460" y="299.9999999999999" as="sourcePoint" />
          </mxGeometry>
        </mxCell>
        <mxCell id="iBrnb8glgnJoaJtSgUPf-49" style="edgeStyle=orthogonalEdgeStyle;rounded=0;orthogonalLoop=1;jettySize=auto;html=1;exitX=1;exitY=0.75;exitDx=0;exitDy=0;entryX=0;entryY=0.16666666666666666;entryDx=0;entryDy=0;endArrow=none;endFill=0;" parent="1" source="iBrnb8glgnJoaJtSgUPf-77" target="iBrnb8glgnJoaJtSgUPf-78" edge="1">
          <mxGeometry relative="1" as="geometry">
            <mxPoint x="460" y="299.9999999999999" as="sourcePoint" />
            <mxPoint x="500" y="333.33333333333326" as="targetPoint" />
          </mxGeometry>
        </mxCell>
        <mxCell id="iBrnb8glgnJoaJtSgUPf-63" style="edgeStyle=orthogonalEdgeStyle;rounded=0;orthogonalLoop=1;jettySize=auto;html=1;exitX=1;exitY=0.5;exitDx=0;exitDy=0;entryX=0;entryY=0.5;entryDx=0;entryDy=0;endArrow=none;endFill=0;" parent="1" source="iBrnb8glgnJoaJtSgUPf-75" target="iBrnb8glgnJoaJtSgUPf-62" edge="1">
          <mxGeometry relative="1" as="geometry" />
        </mxCell>
        <mxCell id="iBrnb8glgnJoaJtSgUPf-51" style="edgeStyle=orthogonalEdgeStyle;rounded=0;orthogonalLoop=1;jettySize=auto;html=1;exitX=1;exitY=0.75;exitDx=0;exitDy=0;entryX=0;entryY=0.5;entryDx=0;entryDy=0;endArrow=none;endFill=0;" parent="1" source="iBrnb8glgnJoaJtSgUPf-78" target="iBrnb8glgnJoaJtSgUPf-55" edge="1">
          <mxGeometry relative="1" as="geometry">
            <mxPoint x="540" y="379.9999999999999" as="sourcePoint" />
          </mxGeometry>
        </mxCell>
        <mxCell id="iBrnb8glgnJoaJtSgUPf-52" style="edgeStyle=orthogonalEdgeStyle;rounded=0;orthogonalLoop=1;jettySize=auto;html=1;exitX=1;exitY=0.25;exitDx=0;exitDy=0;entryX=0;entryY=0.75;entryDx=0;entryDy=0;endArrow=none;endFill=0;" parent="1" source="iBrnb8glgnJoaJtSgUPf-78" target="iBrnb8glgnJoaJtSgUPf-77" edge="1">
          <mxGeometry relative="1" as="geometry">
            <mxPoint x="360" y="300" as="targetPoint" />
            <Array as="points">
              <mxPoint x="550" y="340" />
              <mxPoint x="550" y="410" />
              <mxPoint x="340" y="410" />
              <mxPoint x="340" y="300" />
            </Array>
            <mxPoint x="540" y="339.9999999999999" as="sourcePoint" />
          </mxGeometry>
        </mxCell>
        <mxCell id="iBrnb8glgnJoaJtSgUPf-61" style="edgeStyle=orthogonalEdgeStyle;rounded=0;orthogonalLoop=1;jettySize=auto;html=1;entryX=0;entryY=0.16666666666666666;entryDx=0;entryDy=0;exitX=1;exitY=0.75;exitDx=0;exitDy=0;endArrow=none;endFill=0;" parent="1" source="iBrnb8glgnJoaJtSgUPf-78" target="iBrnb8glgnJoaJtSgUPf-79" edge="1">
          <mxGeometry relative="1" as="geometry">
            <mxPoint x="540" y="380" as="sourcePoint" />
            <mxPoint x="580" y="413.33333333333326" as="targetPoint" />
            <Array as="points">
              <mxPoint x="560" y="380" />
              <mxPoint x="560" y="413" />
            </Array>
          </mxGeometry>
        </mxCell>
        <mxCell id="iBrnb8glgnJoaJtSgUPf-54" value="a" style="shape=image;verticalLabelPosition=bottom;labelBackgroundColor=#ffffff;verticalAlign=top;aspect=fixed;imageAspect=0;image=data:image/svg+xml,PHN2ZyB4bWxucz0iaHR0cDovL3d3dy53My5vcmcvMjAwMC9zdmciIHhtbG5zOmV2PSJodHRwOi8vd3d3LnczLm9yZy8yMDAxL3htbC1ldmVudHMiIHhtbG5zOnhsaW5rPSJodHRwOi8vd3d3LnczLm9yZy8xOTk5L3hsaW5rIiBiYXNlUHJvZmlsZT0iZnVsbCIgaGVpZ2h0PSI0MCIgdmVyc2lvbj0iMS4xIiB3aWR0aD0iNDAiIHZpZXdCb3g9IjAgMCA0MCA0MCI+PGRlZnMvPjxyZWN0IGZpbGw9IiNmZmZmZmYiIGhlaWdodD0iNDAiIHN0cm9rZT0iIzAwMDAwMCIgc3Ryb2tlLXdpZHRoPSIwLjUiIHdpZHRoPSI0MCIgeD0iMCIgeT0iMCIvPjxwb2x5Z29uIGZpbGw9IiNiZmJmYmYiIHBvaW50cz0iMCwxMy4zMzMzMzMzMzMzMzMzMzYgNi42NjY2NjY2NjY2NjY2NjYsMjAuMCAwLDI2LjY2NjY2NjY2NjY2NjY2NCAwLDEzLjMzMzMzMzMzMzMzMzMzNiIgc3Ryb2tlPSJibGFjayIgc3Ryb2tlLXdpZHRoPSIwLjgiLz48cG9seWdvbiBmaWxsPSIjYmZiZmJmIiBwb2ludHM9IjQwLDEzLjMzMzMzMzMzMzMzMzMzNiAzMy4zMzMzMzMzMzMzMzMzMzYsMjAuMCA0MCwyNi42NjY2NjY2NjY2NjY2NjQgNDAsMTMuMzMzMzMzMzMzMzMzMzM2IiBzdHJva2U9ImJsYWNrIiBzdHJva2Utd2lkdGg9IjAuOCIvPjx0ZXh0IHN0eWxlPSJmb250LXNpemU6OHB4OyBmb250LWZhbWlseTpDb3VyaWVyO2ZvbnQtd2VpZ2h0OmJvbGQ7IiB0ZXh0LWFuY2hvcj0ibWlkZGxlIiB4PSIyMCIgeT0iMjIiPlZhcjwvdGV4dD48cmVjdCBmaWxsPSJub25lIiBoZWlnaHQ9IjQwIiBzdHJva2U9IiMwMDAwMDAiIHN0cm9rZS13aWR0aD0iMS42IiB3aWR0aD0iNDAiIHg9IjAiIHk9IjAiLz48L3N2Zz4=;points=[[0, 0.5], [1, 0.5]];verticalLabelPosition=top;labelBackgroundColor=none;verticalAlign=bottom;aspect=fixed;imageAspect=0;fontFamily=Courier;fontSize=8;labelPosition=center;align=center;spacing=-1;fontStyle=1;syncNodeName=var;" parent="1" vertex="1">
          <mxGeometry x="740" y="280" width="40" height="40" as="geometry" />
        </mxCell>
        <mxCell id="iBrnb8glgnJoaJtSgUPf-55" value="b" style="shape=image;verticalLabelPosition=bottom;labelBackgroundColor=#ffffff;verticalAlign=top;aspect=fixed;imageAspect=0;image=data:image/svg+xml,PHN2ZyB4bWxucz0iaHR0cDovL3d3dy53My5vcmcvMjAwMC9zdmciIHhtbG5zOmV2PSJodHRwOi8vd3d3LnczLm9yZy8yMDAxL3htbC1ldmVudHMiIHhtbG5zOnhsaW5rPSJodHRwOi8vd3d3LnczLm9yZy8xOTk5L3hsaW5rIiBiYXNlUHJvZmlsZT0iZnVsbCIgaGVpZ2h0PSI0MCIgdmVyc2lvbj0iMS4xIiB3aWR0aD0iNDAiIHZpZXdCb3g9IjAgMCA0MCA0MCI+PGRlZnMvPjxyZWN0IGZpbGw9IiNmZmZmZmYiIGhlaWdodD0iNDAiIHN0cm9rZT0iIzAwMDAwMCIgc3Ryb2tlLXdpZHRoPSIwLjUiIHdpZHRoPSI0MCIgeD0iMCIgeT0iMCIvPjxwb2x5Z29uIGZpbGw9IiNiZmJmYmYiIHBvaW50cz0iMCwxMy4zMzMzMzMzMzMzMzMzMzYgNi42NjY2NjY2NjY2NjY2NjYsMjAuMCAwLDI2LjY2NjY2NjY2NjY2NjY2NCAwLDEzLjMzMzMzMzMzMzMzMzMzNiIgc3Ryb2tlPSJibGFjayIgc3Ryb2tlLXdpZHRoPSIwLjgiLz48cG9seWdvbiBmaWxsPSIjYmZiZmJmIiBwb2ludHM9IjQwLDEzLjMzMzMzMzMzMzMzMzMzNiAzMy4zMzMzMzMzMzMzMzMzMzYsMjAuMCA0MCwyNi42NjY2NjY2NjY2NjY2NjQgNDAsMTMuMzMzMzMzMzMzMzMzMzM2IiBzdHJva2U9ImJsYWNrIiBzdHJva2Utd2lkdGg9IjAuOCIvPjx0ZXh0IHN0eWxlPSJmb250LXNpemU6OHB4OyBmb250LWZhbWlseTpDb3VyaWVyO2ZvbnQtd2VpZ2h0OmJvbGQ7IiB0ZXh0LWFuY2hvcj0ibWlkZGxlIiB4PSIyMCIgeT0iMjIiPlZhcjwvdGV4dD48cmVjdCBmaWxsPSJub25lIiBoZWlnaHQ9IjQwIiBzdHJva2U9IiMwMDAwMDAiIHN0cm9rZS13aWR0aD0iMS42IiB3aWR0aD0iNDAiIHg9IjAiIHk9IjAiLz48L3N2Zz4=;points=[[0, 0.5], [1, 0.5]];verticalLabelPosition=top;labelBackgroundColor=none;verticalAlign=bottom;aspect=fixed;imageAspect=0;fontFamily=Courier;fontSize=8;labelPosition=center;align=center;spacing=-1;fontStyle=1;syncNodeName=var;" parent="1" vertex="1">
          <mxGeometry x="740" y="360" width="40" height="40" as="geometry" />
        </mxCell>
        <mxCell id="iBrnb8glgnJoaJtSgUPf-62" value="" style="shape=image;verticalLabelPosition=bottom;labelBackgroundColor=#ffffff;verticalAlign=top;aspect=fixed;imageAspect=0;image=data:image/svg+xml,PHN2ZyB4bWxucz0iaHR0cDovL3d3dy53My5vcmcvMjAwMC9zdmciIHhtbG5zOmV2PSJodHRwOi8vd3d3LnczLm9yZy8yMDAxL3htbC1ldmVudHMiIHhtbG5zOnhsaW5rPSJodHRwOi8vd3d3LnczLm9yZy8xOTk5L3hsaW5rIiBiYXNlUHJvZmlsZT0iZnVsbCIgaGVpZ2h0PSI0MCIgdmVyc2lvbj0iMS4xIiB3aWR0aD0iNDAiIHZpZXdCb3g9IjAgMCA0MCA0MCI+PGRlZnMvPjxyZWN0IGZpbGw9IiNmZmZmZmYiIGhlaWdodD0iNDAiIHN0cm9rZT0iIzAwMDAwMCIgc3Ryb2tlLXdpZHRoPSIwLjUiIHdpZHRoPSI0MCIgeD0iMCIgeT0iMCIvPjxwb2x5Z29uIGZpbGw9IiNjNDcxNzkiIHBvaW50cz0iMCwxMy4zMzMzMzMzMzMzMzMzMzYgNi42NjY2NjY2NjY2NjY2NjYsMjAuMCAwLDI2LjY2NjY2NjY2NjY2NjY2NCAwLDEzLjMzMzMzMzMzMzMzMzMzNiIgc3Ryb2tlPSJibGFjayIgc3Ryb2tlLXdpZHRoPSIwLjgiLz48dGV4dCBzdHlsZT0iZm9udC1zaXplOjhweDsgZm9udC1mYW1pbHk6Q291cmllcjtmb250LXdlaWdodDpib2xkOyIgdGV4dC1hbmNob3I9Im1pZGRsZSIgeD0iMjAiIHk9IjIyIj5TdG9wPC90ZXh0PjxyZWN0IGZpbGw9Im5vbmUiIGhlaWdodD0iNDAiIHN0cm9rZT0iIzAwMDAwMCIgc3Ryb2tlLXdpZHRoPSIxLjYiIHdpZHRoPSI0MCIgeD0iMCIgeT0iMCIvPjwvc3ZnPg==;points=[[0, 0.5]];verticalLabelPosition=top;labelBackgroundColor=none;verticalAlign=bottom;aspect=fixed;imageAspect=0;fontFamily=Courier;fontSize=8;labelPosition=center;align=center;spacing=-1;fontStyle=1;syncNodeName=stop;" parent="1" vertex="1">
          <mxGeometry x="580" y="240" width="40" height="40" as="geometry" />
        </mxCell>
        <mxCell id="iBrnb8glgnJoaJtSgUPf-67" style="edgeStyle=orthogonalEdgeStyle;rounded=0;orthogonalLoop=1;jettySize=auto;html=1;exitX=1;exitY=0.5;exitDx=0;exitDy=0;entryX=0;entryY=0.3333333333333333;entryDx=0;entryDy=0;endArrow=none;endFill=0;" parent="1" source="iBrnb8glgnJoaJtSgUPf-66" target="iBrnb8glgnJoaJtSgUPf-78" edge="1">
          <mxGeometry relative="1" as="geometry">
            <mxPoint x="500" y="346.66666666666663" as="targetPoint" />
            <Array as="points">
              <mxPoint x="420" y="360" />
              <mxPoint x="420" y="347" />
            </Array>
          </mxGeometry>
        </mxCell>
        <mxCell id="iBrnb8glgnJoaJtSgUPf-66" value="2" style="shape=image;verticalLabelPosition=bottom;labelBackgroundColor=#ffffff;verticalAlign=top;aspect=fixed;imageAspect=0;image=data:image/svg+xml,PHN2ZyB4bWxucz0iaHR0cDovL3d3dy53My5vcmcvMjAwMC9zdmciIHhtbG5zOmV2PSJodHRwOi8vd3d3LnczLm9yZy8yMDAxL3htbC1ldmVudHMiIHhtbG5zOnhsaW5rPSJodHRwOi8vd3d3LnczLm9yZy8xOTk5L3hsaW5rIiBiYXNlUHJvZmlsZT0iZnVsbCIgaGVpZ2h0PSI0MCIgdmVyc2lvbj0iMS4xIiB3aWR0aD0iNDAiIHZpZXdCb3g9IjAgMCA0MCA0MCI+PGRlZnMvPjxyZWN0IGZpbGw9IiNmZmZmZmYiIGhlaWdodD0iNDAiIHN0cm9rZT0iIzAwMDAwMCIgc3Ryb2tlLXdpZHRoPSIwLjUiIHdpZHRoPSI0MCIgeD0iMCIgeT0iMCIvPjxwb2x5Z29uIGZpbGw9IiNiZmJmYmYiIHBvaW50cz0iNDAsMTMuMzMzMzMzMzMzMzMzMzM2IDMzLjMzMzMzMzMzMzMzMzMzNiwyMC4wIDQwLDI2LjY2NjY2NjY2NjY2NjY2NCA0MCwxMy4zMzMzMzMzMzMzMzMzMzYiIHN0cm9rZT0iYmxhY2siIHN0cm9rZS13aWR0aD0iMC44Ii8+PHRleHQgc3R5bGU9ImZvbnQtc2l6ZTo4cHg7IGZvbnQtZmFtaWx5OkNvdXJpZXI7Zm9udC13ZWlnaHQ6Ym9sZDsiIHRleHQtYW5jaG9yPSJtaWRkbGUiIHg9IjIwIiB5PSIyMiI+Q29uc3Q8L3RleHQ+PHJlY3QgZmlsbD0ibm9uZSIgaGVpZ2h0PSI0MCIgc3Ryb2tlPSIjMDAwMDAwIiBzdHJva2Utd2lkdGg9IjEuNiIgd2lkdGg9IjQwIiB4PSIwIiB5PSIwIi8+PC9zdmc+;points=[[1, 0.5]];verticalLabelPosition=top;labelBackgroundColor=none;verticalAlign=bottom;aspect=fixed;imageAspect=0;fontFamily=Courier;fontSize=8;labelPosition=center;align=center;spacing=-1;fontStyle=1;syncNodeName=const;" parent="1" vertex="1">
          <mxGeometry x="360" y="340" width="40" height="40" as="geometry" />
        </mxCell>
        <mxCell id="iBrnb8glgnJoaJtSgUPf-69" style="edgeStyle=orthogonalEdgeStyle;rounded=0;orthogonalLoop=1;jettySize=auto;html=1;exitX=1;exitY=0.5;exitDx=0;exitDy=0;entryX=0;entryY=0.3333333333333333;entryDx=0;entryDy=0;endArrow=none;endFill=0;" parent="1" source="iBrnb8glgnJoaJtSgUPf-68" target="iBrnb8glgnJoaJtSgUPf-79" edge="1">
          <mxGeometry relative="1" as="geometry">
            <mxPoint x="580" y="426.66666666666663" as="targetPoint" />
            <Array as="points">
              <mxPoint x="500" y="440" />
              <mxPoint x="500" y="427" />
            </Array>
          </mxGeometry>
        </mxCell>
        <mxCell id="iBrnb8glgnJoaJtSgUPf-68" value="2" style="shape=image;verticalLabelPosition=bottom;labelBackgroundColor=#ffffff;verticalAlign=top;aspect=fixed;imageAspect=0;image=data:image/svg+xml,PHN2ZyB4bWxucz0iaHR0cDovL3d3dy53My5vcmcvMjAwMC9zdmciIHhtbG5zOmV2PSJodHRwOi8vd3d3LnczLm9yZy8yMDAxL3htbC1ldmVudHMiIHhtbG5zOnhsaW5rPSJodHRwOi8vd3d3LnczLm9yZy8xOTk5L3hsaW5rIiBiYXNlUHJvZmlsZT0iZnVsbCIgaGVpZ2h0PSI0MCIgdmVyc2lvbj0iMS4xIiB3aWR0aD0iNDAiIHZpZXdCb3g9IjAgMCA0MCA0MCI+PGRlZnMvPjxyZWN0IGZpbGw9IiNmZmZmZmYiIGhlaWdodD0iNDAiIHN0cm9rZT0iIzAwMDAwMCIgc3Ryb2tlLXdpZHRoPSIwLjUiIHdpZHRoPSI0MCIgeD0iMCIgeT0iMCIvPjxwb2x5Z29uIGZpbGw9IiNiZmJmYmYiIHBvaW50cz0iNDAsMTMuMzMzMzMzMzMzMzMzMzM2IDMzLjMzMzMzMzMzMzMzMzMzNiwyMC4wIDQwLDI2LjY2NjY2NjY2NjY2NjY2NCA0MCwxMy4zMzMzMzMzMzMzMzMzMzYiIHN0cm9rZT0iYmxhY2siIHN0cm9rZS13aWR0aD0iMC44Ii8+PHRleHQgc3R5bGU9ImZvbnQtc2l6ZTo4cHg7IGZvbnQtZmFtaWx5OkNvdXJpZXI7Zm9udC13ZWlnaHQ6Ym9sZDsiIHRleHQtYW5jaG9yPSJtaWRkbGUiIHg9IjIwIiB5PSIyMiI+Q29uc3Q8L3RleHQ+PHJlY3QgZmlsbD0ibm9uZSIgaGVpZ2h0PSI0MCIgc3Ryb2tlPSIjMDAwMDAwIiBzdHJva2Utd2lkdGg9IjEuNiIgd2lkdGg9IjQwIiB4PSIwIiB5PSIwIi8+PC9zdmc+;points=[[1, 0.5]];verticalLabelPosition=top;labelBackgroundColor=none;verticalAlign=bottom;aspect=fixed;imageAspect=0;fontFamily=Courier;fontSize=8;labelPosition=center;align=center;spacing=-1;fontStyle=1;syncNodeName=const;" parent="1" vertex="1">
          <mxGeometry x="440" y="420" width="40" height="40" as="geometry" />
        </mxCell>
        <mxCell id="iBrnb8glgnJoaJtSgUPf-71" style="edgeStyle=orthogonalEdgeStyle;rounded=0;orthogonalLoop=1;jettySize=auto;html=1;exitX=1;exitY=0.5;exitDx=0;exitDy=0;entryX=0;entryY=0.3333333333333333;entryDx=0;entryDy=0;endArrow=none;endFill=0;" parent="1" source="iBrnb8glgnJoaJtSgUPf-70" target="iBrnb8glgnJoaJtSgUPf-80" edge="1">
          <mxGeometry relative="1" as="geometry">
            <mxPoint x="660" y="506.66666666666674" as="targetPoint" />
            <Array as="points">
              <mxPoint x="580" y="520" />
              <mxPoint x="580" y="507" />
            </Array>
          </mxGeometry>
        </mxCell>
        <mxCell id="iBrnb8glgnJoaJtSgUPf-70" value="2" style="shape=image;verticalLabelPosition=bottom;labelBackgroundColor=#ffffff;verticalAlign=top;aspect=fixed;imageAspect=0;image=data:image/svg+xml,PHN2ZyB4bWxucz0iaHR0cDovL3d3dy53My5vcmcvMjAwMC9zdmciIHhtbG5zOmV2PSJodHRwOi8vd3d3LnczLm9yZy8yMDAxL3htbC1ldmVudHMiIHhtbG5zOnhsaW5rPSJodHRwOi8vd3d3LnczLm9yZy8xOTk5L3hsaW5rIiBiYXNlUHJvZmlsZT0iZnVsbCIgaGVpZ2h0PSI0MCIgdmVyc2lvbj0iMS4xIiB3aWR0aD0iNDAiIHZpZXdCb3g9IjAgMCA0MCA0MCI+PGRlZnMvPjxyZWN0IGZpbGw9IiNmZmZmZmYiIGhlaWdodD0iNDAiIHN0cm9rZT0iIzAwMDAwMCIgc3Ryb2tlLXdpZHRoPSIwLjUiIHdpZHRoPSI0MCIgeD0iMCIgeT0iMCIvPjxwb2x5Z29uIGZpbGw9IiNiZmJmYmYiIHBvaW50cz0iNDAsMTMuMzMzMzMzMzMzMzMzMzM2IDMzLjMzMzMzMzMzMzMzMzMzNiwyMC4wIDQwLDI2LjY2NjY2NjY2NjY2NjY2NCA0MCwxMy4zMzMzMzMzMzMzMzMzMzYiIHN0cm9rZT0iYmxhY2siIHN0cm9rZS13aWR0aD0iMC44Ii8+PHRleHQgc3R5bGU9ImZvbnQtc2l6ZTo4cHg7IGZvbnQtZmFtaWx5OkNvdXJpZXI7Zm9udC13ZWlnaHQ6Ym9sZDsiIHRleHQtYW5jaG9yPSJtaWRkbGUiIHg9IjIwIiB5PSIyMiI+Q29uc3Q8L3RleHQ+PHJlY3QgZmlsbD0ibm9uZSIgaGVpZ2h0PSI0MCIgc3Ryb2tlPSIjMDAwMDAwIiBzdHJva2Utd2lkdGg9IjEuNiIgd2lkdGg9IjQwIiB4PSIwIiB5PSIwIi8+PC9zdmc+;points=[[1, 0.5]];verticalLabelPosition=top;labelBackgroundColor=none;verticalAlign=bottom;aspect=fixed;imageAspect=0;fontFamily=Courier;fontSize=8;labelPosition=center;align=center;spacing=-1;fontStyle=1;syncNodeName=const;" parent="1" vertex="1">
          <mxGeometry x="520" y="500" width="40" height="40" as="geometry" />
        </mxCell>
        <mxCell id="iBrnb8glgnJoaJtSgUPf-74" style="edgeStyle=orthogonalEdgeStyle;rounded=0;orthogonalLoop=1;jettySize=auto;html=1;exitX=1;exitY=0.5;exitDx=0;exitDy=0;entryX=0;entryY=0.75;entryDx=0;entryDy=0;endArrow=none;endFill=0;" parent="1" source="iBrnb8glgnJoaJtSgUPf-72" target="iBrnb8glgnJoaJtSgUPf-80" edge="1">
          <mxGeometry relative="1" as="geometry">
            <mxPoint x="600" y="540" as="targetPoint" />
            <Array as="points">
              <mxPoint x="880" y="540" />
              <mxPoint x="880" y="590" />
              <mxPoint x="580" y="590" />
              <mxPoint x="580" y="540" />
            </Array>
          </mxGeometry>
        </mxCell>
        <mxCell id="iBrnb8glgnJoaJtSgUPf-72" value="$vars" style="shape=image;verticalLabelPosition=bottom;labelBackgroundColor=#ffffff;verticalAlign=top;aspect=fixed;imageAspect=0;image=data:image/svg+xml,PHN2ZyB4bWxucz0iaHR0cDovL3d3dy53My5vcmcvMjAwMC9zdmciIHhtbG5zOmV2PSJodHRwOi8vd3d3LnczLm9yZy8yMDAxL3htbC1ldmVudHMiIHhtbG5zOnhsaW5rPSJodHRwOi8vd3d3LnczLm9yZy8xOTk5L3hsaW5rIiBiYXNlUHJvZmlsZT0iZnVsbCIgaGVpZ2h0PSI0MCIgdmVyc2lvbj0iMS4xIiB3aWR0aD0iNDAiIHZpZXdCb3g9IjAgMCA0MCA0MCI+PGRlZnMvPjxyZWN0IGZpbGw9IiNmZmZmZmYiIGhlaWdodD0iNDAiIHN0cm9rZT0iIzAwMDAwMCIgc3Ryb2tlLXdpZHRoPSIwLjUiIHdpZHRoPSI0MCIgeD0iMCIgeT0iMCIvPjxwb2x5Z29uIGZpbGw9IiNiZmJmYmYiIHBvaW50cz0iMCwxMy4zMzMzMzMzMzMzMzMzMzYgNi42NjY2NjY2NjY2NjY2NjYsMjAuMCAwLDI2LjY2NjY2NjY2NjY2NjY2NCAwLDEzLjMzMzMzMzMzMzMzMzMzNiIgc3Ryb2tlPSJibGFjayIgc3Ryb2tlLXdpZHRoPSIwLjgiLz48cG9seWdvbiBmaWxsPSIjYzQ3MTc5IiBwb2ludHM9IjQwLDEzLjMzMzMzMzMzMzMzMzMzNiAzMy4zMzMzMzMzMzMzMzMzMzYsMjAuMCA0MCwyNi42NjY2NjY2NjY2NjY2NjQgNDAsMTMuMzMzMzMzMzMzMzMzMzM2IiBzdHJva2U9ImJsYWNrIiBzdHJva2Utd2lkdGg9IjAuOCIvPjx0ZXh0IHN0eWxlPSJmb250LXNpemU6OHB4OyBmb250LWZhbWlseTpDb3VyaWVyO2ZvbnQtd2VpZ2h0OmJvbGQ7IiB0ZXh0LWFuY2hvcj0ibWlkZGxlIiB4PSIyMCIgeT0iMjIiPlByaW50PC90ZXh0PjxyZWN0IGZpbGw9Im5vbmUiIGhlaWdodD0iNDAiIHN0cm9rZT0iIzAwMDAwMCIgc3Ryb2tlLXdpZHRoPSIxLjYiIHdpZHRoPSI0MCIgeD0iMCIgeT0iMCIvPjwvc3ZnPg==;points=[[0, 0.5], [1, 0.5]];verticalLabelPosition=top;labelBackgroundColor=none;verticalAlign=bottom;aspect=fixed;imageAspect=0;fontFamily=Courier;fontSize=8;labelPosition=center;align=center;spacing=-1;fontStyle=1;syncNodeName=print ctrl;" parent="1" vertex="1">
          <mxGeometry x="820" y="520" width="40" height="40" as="geometry" />
        </mxCell>
        <mxCell id="iBrnb8glgnJoaJtSgUPf-75" value="$iteration" style="shape=image;verticalLabelPosition=bottom;labelBackgroundColor=#ffffff;verticalAlign=top;aspect=fixed;imageAspect=0;image=data:image/svg+xml,PHN2ZyB4bWxucz0iaHR0cDovL3d3dy53My5vcmcvMjAwMC9zdmciIHhtbG5zOmV2PSJodHRwOi8vd3d3LnczLm9yZy8yMDAxL3htbC1ldmVudHMiIHhtbG5zOnhsaW5rPSJodHRwOi8vd3d3LnczLm9yZy8xOTk5L3hsaW5rIiBiYXNlUHJvZmlsZT0iZnVsbCIgaGVpZ2h0PSI0MCIgdmVyc2lvbj0iMS4xIiB3aWR0aD0iNDAiIHZpZXdCb3g9IjAgMCA0MCA0MCI+PGRlZnMvPjxyZWN0IGZpbGw9IiNmZmZmZmYiIGhlaWdodD0iNDAiIHN0cm9rZT0iIzAwMDAwMCIgc3Ryb2tlLXdpZHRoPSIwLjUiIHdpZHRoPSI0MCIgeD0iMCIgeT0iMCIvPjxwb2x5Z29uIGZpbGw9IiNiZmJmYmYiIHBvaW50cz0iMCwxMy4zMzMzMzMzMzMzMzMzMzYgNi42NjY2NjY2NjY2NjY2NjYsMjAuMCAwLDI2LjY2NjY2NjY2NjY2NjY2NCAwLDEzLjMzMzMzMzMzMzMzMzMzNiIgc3Ryb2tlPSJibGFjayIgc3Ryb2tlLXdpZHRoPSIwLjgiLz48cG9seWdvbiBmaWxsPSIjYzQ3MTc5IiBwb2ludHM9IjQwLDEzLjMzMzMzMzMzMzMzMzMzNiAzMy4zMzMzMzMzMzMzMzMzMzYsMjAuMCA0MCwyNi42NjY2NjY2NjY2NjY2NjQgNDAsMTMuMzMzMzMzMzMzMzMzMzM2IiBzdHJva2U9ImJsYWNrIiBzdHJva2Utd2lkdGg9IjAuOCIvPjx0ZXh0IHN0eWxlPSJmb250LXNpemU6OHB4OyBmb250LWZhbWlseTpDb3VyaWVyO2ZvbnQtd2VpZ2h0OmJvbGQ7IiB0ZXh0LWFuY2hvcj0ibWlkZGxlIiB4PSIyMCIgeT0iMjIiPlByaW50PC90ZXh0PjxyZWN0IGZpbGw9Im5vbmUiIGhlaWdodD0iNDAiIHN0cm9rZT0iIzAwMDAwMCIgc3Ryb2tlLXdpZHRoPSIxLjYiIHdpZHRoPSI0MCIgeD0iMCIgeT0iMCIvPjwvc3ZnPg==;points=[[0, 0.5], [1, 0.5]];verticalLabelPosition=top;labelBackgroundColor=none;verticalAlign=bottom;aspect=fixed;imageAspect=0;fontFamily=Courier;fontSize=8;labelPosition=center;align=center;spacing=-1;fontStyle=1;syncNodeName=print ctrl;" parent="1" vertex="1">
          <mxGeometry x="500" y="240" width="40" height="40" as="geometry" />
        </mxCell>
        <mxCell id="iBrnb8glgnJoaJtSgUPf-76" style="edgeStyle=orthogonalEdgeStyle;rounded=0;orthogonalLoop=1;jettySize=auto;html=1;exitX=1;exitY=0.25;exitDx=0;exitDy=0;entryX=0;entryY=0.5;entryDx=0;entryDy=0;endArrow=none;endFill=0;" parent="1" source="iBrnb8glgnJoaJtSgUPf-77" target="iBrnb8glgnJoaJtSgUPf-75" edge="1">
          <mxGeometry relative="1" as="geometry">
            <mxPoint x="460" y="259.9999999999999" as="sourcePoint" />
            <mxPoint x="560" y="260" as="targetPoint" />
          </mxGeometry>
        </mxCell>
        <mxCell id="iBrnb8glgnJoaJtSgUPf-77" value="" style="shape=image;verticalLabelPosition=bottom;labelBackgroundColor=#ffffff;verticalAlign=top;aspect=fixed;imageAspect=0;image=data:image/svg+xml,PHN2ZyB4bWxucz0iaHR0cDovL3d3dy53My5vcmcvMjAwMC9zdmciIHhtbG5zOmV2PSJodHRwOi8vd3d3LnczLm9yZy8yMDAxL3htbC1ldmVudHMiIHhtbG5zOnhsaW5rPSJodHRwOi8vd3d3LnczLm9yZy8xOTk5L3hsaW5rIiBiYXNlUHJvZmlsZT0iZnVsbCIgaGVpZ2h0PSI4MCIgdmVyc2lvbj0iMS4xIiB3aWR0aD0iNDAiIHZpZXdCb3g9IjAgMCA0MCA4MCI+PGRlZnMvPjxyZWN0IGZpbGw9IiNmZmZmZmYiIGhlaWdodD0iODAiIHN0cm9rZT0iIzAwMDAwMCIgc3Ryb2tlLXdpZHRoPSIwLjUiIHdpZHRoPSI0MCIgeD0iMCIgeT0iMCIvPjxwb2x5Z29uIGZpbGw9IiNjNDcxNzkiIHBvaW50cz0iMCw2LjY2NjY2NjY2NjY2NjY2NiA2LjY2NjY2NjY2NjY2NjY2NiwxMy4zMzMzMzMzMzMzMzMzMzIgMCwyMC4wIDAsNi42NjY2NjY2NjY2NjY2NjYiIHN0cm9rZT0iYmxhY2siIHN0cm9rZS13aWR0aD0iMC44Ii8+PHBvbHlnb24gZmlsbD0iIzZkY2ZmNiIgcG9pbnRzPSIwLDIwLjAgNi42NjY2NjY2NjY2NjY2NjYsMjYuNjY2NjY2NjY2NjY2NjY0IDAsMzMuMzMzMzMzMzMzMzMzMzMgMCwyMC4wIiBzdHJva2U9ImJsYWNrIiBzdHJva2Utd2lkdGg9IjAuOCIvPjxwb2x5Z29uIGZpbGw9IiNjNDcxNzkiIHBvaW50cz0iMCw1My4zMzMzMzMzMzMzMzMzMyA2LjY2NjY2NjY2NjY2NjY2Niw2MC4wIDAsNjYuNjY2NjY2NjY2NjY2NjcgMCw1My4zMzMzMzMzMzMzMzMzMyIgc3Ryb2tlPSJibGFjayIgc3Ryb2tlLXdpZHRoPSIwLjgiLz48cG9seWdvbiBmaWxsPSIjYzQ3MTc5IiBwb2ludHM9IjQwLDEzLjMzMzMzMzMzMzMzMzMzNiAzMy4zMzMzMzMzMzMzMzMzMzYsMjAuMCA0MCwyNi42NjY2NjY2NjY2NjY2NjQgNDAsMTMuMzMzMzMzMzMzMzMzMzM2IiBzdHJva2U9ImJsYWNrIiBzdHJva2Utd2lkdGg9IjAuOCIvPjxwb2x5Z29uIGZpbGw9IiM2ZGNmZjYiIHBvaW50cz0iNDAsNTMuMzMzMzMzMzMzMzMzMzMgMzMuMzMzMzMzMzMzMzMzMzM2LDYwLjAgNDAsNjYuNjY2NjY2NjY2NjY2NjcgNDAsNTMuMzMzMzMzMzMzMzMzMzMiIHN0cm9rZT0iYmxhY2siIHN0cm9rZS13aWR0aD0iMC44Ii8+PHRleHQgc3R5bGU9ImZvbnQtc2l6ZTo4cHg7IGZvbnQtZmFtaWx5OkNvdXJpZXI7Zm9udC13ZWlnaHQ6Ym9sZDsiIHRleHQtYW5jaG9yPSJtaWRkbGUiIHg9IjIwIiB5PSIyMiI+Q3RyPC90ZXh0PjxyZWN0IGZpbGw9Im5vbmUiIGhlaWdodD0iODAiIHN0cm9rZT0iIzAwMDAwMCIgc3Ryb2tlLXdpZHRoPSIxLjYiIHdpZHRoPSI0MCIgeD0iMCIgeT0iMCIvPjwvc3ZnPg==;points=[[0, 0.16666666666666666], [0, 0.3333333333333333], [0, 0.75], [1, 0.25], [1, 0.75]];verticalLabelPosition=top;labelBackgroundColor=none;verticalAlign=bottom;aspect=fixed;imageAspect=0;fontFamily=Courier;fontSize=8;labelPosition=center;align=center;spacing=-1;fontStyle=1;syncNodeName=counter;" parent="1" vertex="1">
          <mxGeometry x="420" y="240" width="40" height="80" as="geometry" />
        </mxCell>
        <mxCell id="iBrnb8glgnJoaJtSgUPf-78" value="" style="shape=image;verticalLabelPosition=bottom;labelBackgroundColor=#ffffff;verticalAlign=top;aspect=fixed;imageAspect=0;image=data:image/svg+xml,PHN2ZyB4bWxucz0iaHR0cDovL3d3dy53My5vcmcvMjAwMC9zdmciIHhtbG5zOmV2PSJodHRwOi8vd3d3LnczLm9yZy8yMDAxL3htbC1ldmVudHMiIHhtbG5zOnhsaW5rPSJodHRwOi8vd3d3LnczLm9yZy8xOTk5L3hsaW5rIiBiYXNlUHJvZmlsZT0iZnVsbCIgaGVpZ2h0PSI4MCIgdmVyc2lvbj0iMS4xIiB3aWR0aD0iNDAiIHZpZXdCb3g9IjAgMCA0MCA4MCI+PGRlZnMvPjxyZWN0IGZpbGw9IiNmZmZmZmYiIGhlaWdodD0iODAiIHN0cm9rZT0iIzAwMDAwMCIgc3Ryb2tlLXdpZHRoPSIwLjUiIHdpZHRoPSI0MCIgeD0iMCIgeT0iMCIvPjxwb2x5Z29uIGZpbGw9IiNjNDcxNzkiIHBvaW50cz0iMCw2LjY2NjY2NjY2NjY2NjY2NiA2LjY2NjY2NjY2NjY2NjY2NiwxMy4zMzMzMzMzMzMzMzMzMzIgMCwyMC4wIDAsNi42NjY2NjY2NjY2NjY2NjYiIHN0cm9rZT0iYmxhY2siIHN0cm9rZS13aWR0aD0iMC44Ii8+PHBvbHlnb24gZmlsbD0iIzZkY2ZmNiIgcG9pbnRzPSIwLDIwLjAgNi42NjY2NjY2NjY2NjY2NjYsMjYuNjY2NjY2NjY2NjY2NjY0IDAsMzMuMzMzMzMzMzMzMzMzMzMgMCwyMC4wIiBzdHJva2U9ImJsYWNrIiBzdHJva2Utd2lkdGg9IjAuOCIvPjxwb2x5Z29uIGZpbGw9IiNjNDcxNzkiIHBvaW50cz0iMCw1My4zMzMzMzMzMzMzMzMzMyA2LjY2NjY2NjY2NjY2NjY2Niw2MC4wIDAsNjYuNjY2NjY2NjY2NjY2NjcgMCw1My4zMzMzMzMzMzMzMzMzMyIgc3Ryb2tlPSJibGFjayIgc3Ryb2tlLXdpZHRoPSIwLjgiLz48cG9seWdvbiBmaWxsPSIjYzQ3MTc5IiBwb2ludHM9IjQwLDEzLjMzMzMzMzMzMzMzMzMzNiAzMy4zMzMzMzMzMzMzMzMzMzYsMjAuMCA0MCwyNi42NjY2NjY2NjY2NjY2NjQgNDAsMTMuMzMzMzMzMzMzMzMzMzM2IiBzdHJva2U9ImJsYWNrIiBzdHJva2Utd2lkdGg9IjAuOCIvPjxwb2x5Z29uIGZpbGw9IiM2ZGNmZjYiIHBvaW50cz0iNDAsNTMuMzMzMzMzMzMzMzMzMzMgMzMuMzMzMzMzMzMzMzMzMzM2LDYwLjAgNDAsNjYuNjY2NjY2NjY2NjY2NjcgNDAsNTMuMzMzMzMzMzMzMzMzMzMiIHN0cm9rZT0iYmxhY2siIHN0cm9rZS13aWR0aD0iMC44Ii8+PHRleHQgc3R5bGU9ImZvbnQtc2l6ZTo4cHg7IGZvbnQtZmFtaWx5OkNvdXJpZXI7Zm9udC13ZWlnaHQ6Ym9sZDsiIHRleHQtYW5jaG9yPSJtaWRkbGUiIHg9IjIwIiB5PSIyMiI+Q3RyPC90ZXh0PjxyZWN0IGZpbGw9Im5vbmUiIGhlaWdodD0iODAiIHN0cm9rZT0iIzAwMDAwMCIgc3Ryb2tlLXdpZHRoPSIxLjYiIHdpZHRoPSI0MCIgeD0iMCIgeT0iMCIvPjwvc3ZnPg==;points=[[0, 0.16666666666666666], [0, 0.3333333333333333], [0, 0.75], [1, 0.25], [1, 0.75]];verticalLabelPosition=top;labelBackgroundColor=none;verticalAlign=bottom;aspect=fixed;imageAspect=0;fontFamily=Courier;fontSize=8;labelPosition=center;align=center;spacing=-1;fontStyle=1;syncNodeName=counter;" parent="1" vertex="1">
          <mxGeometry x="500" y="320" width="40" height="80" as="geometry" />
        </mxCell>
        <mxCell id="iBrnb8glgnJoaJtSgUPf-79" value="" style="shape=image;verticalLabelPosition=bottom;labelBackgroundColor=#ffffff;verticalAlign=top;aspect=fixed;imageAspect=0;image=data:image/svg+xml,PHN2ZyB4bWxucz0iaHR0cDovL3d3dy53My5vcmcvMjAwMC9zdmciIHhtbG5zOmV2PSJodHRwOi8vd3d3LnczLm9yZy8yMDAxL3htbC1ldmVudHMiIHhtbG5zOnhsaW5rPSJodHRwOi8vd3d3LnczLm9yZy8xOTk5L3hsaW5rIiBiYXNlUHJvZmlsZT0iZnVsbCIgaGVpZ2h0PSI4MCIgdmVyc2lvbj0iMS4xIiB3aWR0aD0iNDAiIHZpZXdCb3g9IjAgMCA0MCA4MCI+PGRlZnMvPjxyZWN0IGZpbGw9IiNmZmZmZmYiIGhlaWdodD0iODAiIHN0cm9rZT0iIzAwMDAwMCIgc3Ryb2tlLXdpZHRoPSIwLjUiIHdpZHRoPSI0MCIgeD0iMCIgeT0iMCIvPjxwb2x5Z29uIGZpbGw9IiNjNDcxNzkiIHBvaW50cz0iMCw2LjY2NjY2NjY2NjY2NjY2NiA2LjY2NjY2NjY2NjY2NjY2NiwxMy4zMzMzMzMzMzMzMzMzMzIgMCwyMC4wIDAsNi42NjY2NjY2NjY2NjY2NjYiIHN0cm9rZT0iYmxhY2siIHN0cm9rZS13aWR0aD0iMC44Ii8+PHBvbHlnb24gZmlsbD0iIzZkY2ZmNiIgcG9pbnRzPSIwLDIwLjAgNi42NjY2NjY2NjY2NjY2NjYsMjYuNjY2NjY2NjY2NjY2NjY0IDAsMzMuMzMzMzMzMzMzMzMzMzMgMCwyMC4wIiBzdHJva2U9ImJsYWNrIiBzdHJva2Utd2lkdGg9IjAuOCIvPjxwb2x5Z29uIGZpbGw9IiNjNDcxNzkiIHBvaW50cz0iMCw1My4zMzMzMzMzMzMzMzMzMyA2LjY2NjY2NjY2NjY2NjY2Niw2MC4wIDAsNjYuNjY2NjY2NjY2NjY2NjcgMCw1My4zMzMzMzMzMzMzMzMzMyIgc3Ryb2tlPSJibGFjayIgc3Ryb2tlLXdpZHRoPSIwLjgiLz48cG9seWdvbiBmaWxsPSIjYzQ3MTc5IiBwb2ludHM9IjQwLDEzLjMzMzMzMzMzMzMzMzMzNiAzMy4zMzMzMzMzMzMzMzMzMzYsMjAuMCA0MCwyNi42NjY2NjY2NjY2NjY2NjQgNDAsMTMuMzMzMzMzMzMzMzMzMzM2IiBzdHJva2U9ImJsYWNrIiBzdHJva2Utd2lkdGg9IjAuOCIvPjxwb2x5Z29uIGZpbGw9IiM2ZGNmZjYiIHBvaW50cz0iNDAsNTMuMzMzMzMzMzMzMzMzMzMgMzMuMzMzMzMzMzMzMzMzMzM2LDYwLjAgNDAsNjYuNjY2NjY2NjY2NjY2NjcgNDAsNTMuMzMzMzMzMzMzMzMzMzMiIHN0cm9rZT0iYmxhY2siIHN0cm9rZS13aWR0aD0iMC44Ii8+PHRleHQgc3R5bGU9ImZvbnQtc2l6ZTo4cHg7IGZvbnQtZmFtaWx5OkNvdXJpZXI7Zm9udC13ZWlnaHQ6Ym9sZDsiIHRleHQtYW5jaG9yPSJtaWRkbGUiIHg9IjIwIiB5PSIyMiI+Q3RyPC90ZXh0PjxyZWN0IGZpbGw9Im5vbmUiIGhlaWdodD0iODAiIHN0cm9rZT0iIzAwMDAwMCIgc3Ryb2tlLXdpZHRoPSIxLjYiIHdpZHRoPSI0MCIgeD0iMCIgeT0iMCIvPjwvc3ZnPg==;points=[[0, 0.16666666666666666], [0, 0.3333333333333333], [0, 0.75], [1, 0.25], [1, 0.75]];verticalLabelPosition=top;labelBackgroundColor=none;verticalAlign=bottom;aspect=fixed;imageAspect=0;fontFamily=Courier;fontSize=8;labelPosition=center;align=center;spacing=-1;fontStyle=1;syncNodeName=counter;" parent="1" vertex="1">
          <mxGeometry x="580" y="400" width="40" height="80" as="geometry" />
        </mxCell>
        <mxCell id="iBrnb8glgnJoaJtSgUPf-80" value="" style="shape=image;verticalLabelPosition=bottom;labelBackgroundColor=#ffffff;verticalAlign=top;aspect=fixed;imageAspect=0;image=data:image/svg+xml,PHN2ZyB4bWxucz0iaHR0cDovL3d3dy53My5vcmcvMjAwMC9zdmciIHhtbG5zOmV2PSJodHRwOi8vd3d3LnczLm9yZy8yMDAxL3htbC1ldmVudHMiIHhtbG5zOnhsaW5rPSJodHRwOi8vd3d3LnczLm9yZy8xOTk5L3hsaW5rIiBiYXNlUHJvZmlsZT0iZnVsbCIgaGVpZ2h0PSI4MCIgdmVyc2lvbj0iMS4xIiB3aWR0aD0iNDAiIHZpZXdCb3g9IjAgMCA0MCA4MCI+PGRlZnMvPjxyZWN0IGZpbGw9IiNmZmZmZmYiIGhlaWdodD0iODAiIHN0cm9rZT0iIzAwMDAwMCIgc3Ryb2tlLXdpZHRoPSIwLjUiIHdpZHRoPSI0MCIgeD0iMCIgeT0iMCIvPjxwb2x5Z29uIGZpbGw9IiNjNDcxNzkiIHBvaW50cz0iMCw2LjY2NjY2NjY2NjY2NjY2NiA2LjY2NjY2NjY2NjY2NjY2NiwxMy4zMzMzMzMzMzMzMzMzMzIgMCwyMC4wIDAsNi42NjY2NjY2NjY2NjY2NjYiIHN0cm9rZT0iYmxhY2siIHN0cm9rZS13aWR0aD0iMC44Ii8+PHBvbHlnb24gZmlsbD0iIzZkY2ZmNiIgcG9pbnRzPSIwLDIwLjAgNi42NjY2NjY2NjY2NjY2NjYsMjYuNjY2NjY2NjY2NjY2NjY0IDAsMzMuMzMzMzMzMzMzMzMzMzMgMCwyMC4wIiBzdHJva2U9ImJsYWNrIiBzdHJva2Utd2lkdGg9IjAuOCIvPjxwb2x5Z29uIGZpbGw9IiNjNDcxNzkiIHBvaW50cz0iMCw1My4zMzMzMzMzMzMzMzMzMyA2LjY2NjY2NjY2NjY2NjY2Niw2MC4wIDAsNjYuNjY2NjY2NjY2NjY2NjcgMCw1My4zMzMzMzMzMzMzMzMzMyIgc3Ryb2tlPSJibGFjayIgc3Ryb2tlLXdpZHRoPSIwLjgiLz48cG9seWdvbiBmaWxsPSIjYzQ3MTc5IiBwb2ludHM9IjQwLDEzLjMzMzMzMzMzMzMzMzMzNiAzMy4zMzMzMzMzMzMzMzMzMzYsMjAuMCA0MCwyNi42NjY2NjY2NjY2NjY2NjQgNDAsMTMuMzMzMzMzMzMzMzMzMzM2IiBzdHJva2U9ImJsYWNrIiBzdHJva2Utd2lkdGg9IjAuOCIvPjxwb2x5Z29uIGZpbGw9IiM2ZGNmZjYiIHBvaW50cz0iNDAsNTMuMzMzMzMzMzMzMzMzMzMgMzMuMzMzMzMzMzMzMzMzMzM2LDYwLjAgNDAsNjYuNjY2NjY2NjY2NjY2NjcgNDAsNTMuMzMzMzMzMzMzMzMzMzMiIHN0cm9rZT0iYmxhY2siIHN0cm9rZS13aWR0aD0iMC44Ii8+PHRleHQgc3R5bGU9ImZvbnQtc2l6ZTo4cHg7IGZvbnQtZmFtaWx5OkNvdXJpZXI7Zm9udC13ZWlnaHQ6Ym9sZDsiIHRleHQtYW5jaG9yPSJtaWRkbGUiIHg9IjIwIiB5PSIyMiI+Q3RyPC90ZXh0PjxyZWN0IGZpbGw9Im5vbmUiIGhlaWdodD0iODAiIHN0cm9rZT0iIzAwMDAwMCIgc3Ryb2tlLXdpZHRoPSIxLjYiIHdpZHRoPSI0MCIgeD0iMCIgeT0iMCIvPjwvc3ZnPg==;points=[[0, 0.16666666666666666], [0, 0.3333333333333333], [0, 0.75], [1, 0.25], [1, 0.75]];verticalLabelPosition=top;labelBackgroundColor=none;verticalAlign=bottom;aspect=fixed;imageAspect=0;fontFamily=Courier;fontSize=8;labelPosition=center;align=center;spacing=-1;fontStyle=1;syncNodeName=counter;" parent="1" vertex="1">
          <mxGeometry x="660" y="480" width="40" height="80" as="geometry" />
        </mxCell>
      </root>
    </mxGraphModel>
  </diagram>
</mxfile>
